<svg xmlns="http://www.w3.org/2000/svg" width="256" height="256" fill="none"><circle cx="128" cy="128" r="113" fill="#D60000"/><path fill="#DE3251" fill-rule="evenodd" d="M118.379 160.196c-1.206-.759-11.28-7.099-13.562-11.531-7.72-14.986-9.182-22.012-9.603-24.039-.213-1.023-3.666-5.396-4.27-7-4.154-11.015-4.084-21.479-4.07-23.377.029-4.48 3.033-3.598 3.13-8.072.281-13.16-.728-13.82 6.827-24.654 13.083-18.76 36.214-21.126 47.326-13.23 26.252 18.653 21.998 39.897 21.998 39.9.085 3.14 4.542 2.585 3.877 9.086-2.174 21.274-4.462 23.814-5.857 25.362-2.833 3.145-.769 16.589-13.237 29.278-8.186 8.329-16.637 6.26-12.194 10.19 6.461 5.716 5.94 6.12 9.614 13.845 1.849 3.889 18.448 23.957-6.656 33.242-19.484 7.206-20.405.937-30.945-11.029-5.396-6.128-1.62-16.321-.128-17.705 2.991-2.774 1.57-3.765 4.433-6.741 1.759-1.827 1.162-2.073 1.302-4.6.278-5.02 5.09-4.964 2.015-8.925Z" clip-rule="evenodd"/><path fill="#FEFEFE" fill-rule="evenodd" d="M125.655 154.14c-1.44.303-3.005-.304-5.397 2.55-.559.667-1.765 2.105-9.729-4.871-1.334-1.168-3.943-3.453-10.893-19.303-2.54-5.794-.21-7.14-4.231-12.088-4.332-5.33-8.03-26.162-5.182-29.16 6.418-6.758-3.673-11.914 7.794-27.545.336-.457 24.242-33.773 51.779-7.76 21.825 20.617 9.836 32.977 16.26 36.502 2.865 1.572 1.289 2.513.44 13.969-.822 11.112-4.165 14.54-5.074 15.472-1.949 2-.509 27.57-23.621 35.137-4.637 1.518-3.768-6.99-10.31-3.47-.136.073-.136.041-1.836.567Z" clip-rule="evenodd"/><path fill="#FEFEFE" fill-rule="evenodd" d="M132.791 156.965c-.687.222 1.52 4.098 2.345 3.736.552 1.333.073 1.66 2.539 3.527 5.372 4.067 4.717 4.621 7.617 10.762 3.98 8.425 17.858 23.885-4.658 32.15-17.33 6.362-19.67-.558-20.786-1.906-8.465-10.217-11.275-10.894-8.619-20.98.846-3.211 3.131-1.816 3.845-5.047.692-3.13 1.035-2.963 3.307-5.174 1.804-1.755-1.994-5.791 3.054-9.229 2.754-1.875-3.411-7.389 4.216-8.365 3.92-.501 4.518-2.433 7.14.526Z" clip-rule="evenodd"/><path fill="#DC2345" fill-rule="evenodd" d="M135.231 114.227c-3.142-5.832-.936-8.564-4.508-8.968-4.206-.475-3.668 1.135-4.828 5.275-.92 3.284-4.032 7.527-8.308 8.272-12.097 2.11-13.52-8.865-14.454-10.182-.803-1.133-8.492-11.972-9.63-14.442-.987-2.145 1.06-3.008 1.865-1.041 1.156 2.825 6.636 10.118 7.268 10.958 2.052 2.73 3.44-5.311 9.907-6.433 7.663-1.33 7.742.06 13.174 5.584.677.69 4.051-.83 6.083-.319 2.411.606 2.552.415 4.15-1.414 4.513-5.16 13.341-6.09 18.289.699 2.4 3.293 4.924-4.922 6.965-6.788 6.663-6.092-2.739 8.32-3.153 8.957-2.405 3.686-1.622 3.97-3.136 8.057-3.998 10.791-15.662 5.353-16.938 4.758-1.452-1.416-1.43-1.347-2.746-2.973Z" clip-rule="evenodd"/><path fill="#FEFEFE" fill-rule="evenodd" d="M123.986 106.366c-1.599 19.659-25.879 7.075-15.288-3.732 2.134-2.178 11.985-6.397 15.288 3.732ZM136.255 105.561c8.212-12.428 17.232-1.526 17.273.887.246 14.237-19.832 13.411-17.273-.887Z" clip-rule="evenodd"/><path fill="#DE3251" fill-rule="evenodd" d="M135.231 114.227c1.316 1.626 1.294 1.557 2.746 2.973-.167.329-2.273.969-.455 2.613 5.324 4.815-2.576 11.248-7.832 10.809-2.588-.217-7.881-5.032-7.925-5.09-.11-.148-2.94-6.728 1.591-1.672 5.067 5.655 8.656 4.254 9.416 3.956 7.434-2.904 2.144-8.346 1.813-9.197-1.429-3.688.121-3.502.646-4.392ZM117.798 137.141c10.831-.713 11.434 2.895 23.005-2.483 2.064-.959 3.442.322 1.666 1.6-7.739 5.574-25.079 3.505-25.123 1.513-.005-.258.457-.372.452-.63ZM130.618 157.612c.994 1.56 2.61 3.793 3.399 4.041.417.131 1.076 1.001.07 1.519-.07.036-.353.181-.938-.263-3.317-2.525-4.277-3.957-4.699-4.841-.359-.751 1.153-2.05 2.168-.456Z" clip-rule="evenodd"/></svg>